<?xml version="1.0" encoding="UTF-8"?>
<!DOCTYPE svg PUBLIC "-//W3C//DTD SVG 1.1//EN" "http://www.w3.org/Graphics/SVG/1.1/DTD/svg11.dtd">
<!-- Creator: CorelDRAW 2020 (64 Bit) -->
<svg xmlns="http://www.w3.org/2000/svg" xml:space="preserve" width="501px" height="372px" version="1.1" style="shape-rendering:geometricPrecision; text-rendering:geometricPrecision; image-rendering:optimizeQuality; fill-rule:evenodd; clip-rule:evenodd"
viewBox="0 0 501 372"
 xmlns:xlink="http://www.w3.org/1999/xlink"
 xmlns:xodm="http://www.corel.com/coreldraw/odm/2003">
 <defs>
  <style type="text/css">
   <![CDATA[
    .fil0 {fill:#FF6A00}
   ]]>
  </style>
 </defs>
 <g id="Camada_x0020_1">
  <metadata id="CorelCorpID_0Corel-Layer"/>
  <path class="fil0" d="M62.39 0.48l376.22 0c34.04,0 61.89,27.85 61.89,61.89l0 69.02 -21.97 0 0 -69.02c0,-5.98 -1.34,-11.67 -3.74,-16.79l-138.67 138.68 139.71 139.72c1.74,-4.46 2.7,-9.3 2.7,-14.35l0 -69.02 21.97 0 0 69.02c0,34.04 -27.85,61.89 -61.89,61.89l-376.22 0c-34.04,0 -61.89,-27.85 -61.89,-61.89l0 -69.02 21.97 0 0 69.02c0,5.05 0.96,9.89 2.7,14.35l139.72 -139.72 -138.68 -138.68c-2.4,5.12 -3.74,10.81 -3.74,16.79l0 69.02 -21.97 0 0 -69.02c0,-34.04 27.85,-61.89 61.89,-61.89zm427.13 174.53c6.06,0 10.98,4.92 10.98,10.99 0,6.07 -4.92,10.99 -10.98,10.99 -6.07,0 -10.99,-4.92 -10.99,-10.99 0,-6.07 4.92,-10.99 10.99,-10.99zm-239.02 0c6.07,0 10.99,4.92 10.99,10.99 0,6.07 -4.92,10.99 -10.99,10.99 -6.07,0 -10.99,-4.92 -10.99,-10.99 0,-6.07 4.92,-10.99 10.99,-10.99zm-239.02 0c6.07,0 10.99,4.92 10.99,10.99 0,6.07 -4.92,10.99 -10.99,10.99 -6.06,0 -10.98,-4.92 -10.98,-10.99 0,-6.07 4.92,-10.99 10.98,-10.99zm445.3 -148.14c-5.46,-2.82 -11.64,-4.42 -18.17,-4.42l-376.22 0c-6.53,0 -12.71,1.6 -18.17,4.42l141.74 141.74c7.65,-28.47 33.65,-49.43 64.54,-49.43 30.89,0 56.89,20.96 64.54,49.43l141.74 -141.74zm2.24 317.01l-143.3 -143.29c-6.65,29.89 -33.33,52.23 -65.22,52.23 -31.89,0 -58.57,-22.34 -65.22,-52.23l-143.3 143.29c5.99,3.59 12.97,5.67 20.41,5.67l376.22 0c7.44,0 14.42,-2.08 20.41,-5.67zm-208.52 -198.74c-22.57,0 -40.86,18.29 -40.86,40.86 0,22.56 18.29,40.86 40.86,40.86 22.57,0 40.86,-18.3 40.86,-40.86 0,-22.57 -18.29,-40.86 -40.86,-40.86z"/>
 </g>
</svg>
